<?xml version="1.0" encoding="utf-8"?>
<!-- Generator: Adobe Illustrator 21.1.0, SVG Export Plug-In . SVG Version: 6.00 Build 0)  -->
<svg version="1.1" id="Layer_1" xmlns="http://www.w3.org/2000/svg" xmlns:xlink="http://www.w3.org/1999/xlink" x="0px" y="0px"
	 viewBox="0 0 80 100" style="enable-background:new 0 0 80 100;" xml:space="preserve">
<style type="text/css">
	.st0{fill:#3E3E3E;}
</style>
<path class="st0" d="M-360.3,67c-2.1,0.3-3,3-3,3s-1.6-2.4-3.7-2.1c-2.1,0.3-3.1,2-2.9,3.8c0.3,2.6,2.2,4.2,7.7,7.3
	c4.5-4.4,5.9-6.4,5.6-9C-356.8,68.1-358.2,66.7-360.3,67z"/>
<path class="st0" d="M-416.2,82.6l-0.4,4.5c0,0.2,0.1,0.4,0.4,0.5c1.5,0.2,3,0.6,4.5,1.3c1.5,0.7,2.7,1.6,3.8,2.7
	c0.2,0.2,0.4,0.2,0.6,0l3.2-3.1c0.2-0.2,0.2-0.4,0-0.6c-1.5-1.5-3.3-2.8-5.4-3.8c-2-1-4.2-1.6-6.3-1.8
	C-416,82.1-416.2,82.3-416.2,82.6z"/>
<path class="st0" d="M-388.6,49.8l-4-2.1c-0.2-0.1-0.4,0-0.6,0.2c-0.8,1.3-1.7,2.5-2.9,3.6c-1.2,1.1-2.5,1.9-4,2.5
	c-0.2,0.1-0.3,0.3-0.2,0.5l1.6,4.2c0.1,0.2,0.3,0.3,0.6,0.2c2-0.8,3.9-1.9,5.6-3.4c1.7-1.5,3.1-3.2,4.1-5.1
	C-388.3,50.2-388.4,49.9-388.6,49.8z"/>
<path class="st0" d="M470.3,45.4l-0.3,4.5c0,0.2,0.2,0.4,0.4,0.4c1.5,0.1,3,0.5,4.5,1.2c1.5,0.7,2.8,1.5,3.9,2.6
	c0.2,0.2,0.4,0.2,0.6,0l3.2-3.2c0.2-0.2,0.2-0.4,0-0.6c-1.6-1.5-3.4-2.7-5.5-3.6c-2.1-0.9-4.2-1.5-6.3-1.6
	C470.5,45,470.3,45.2,470.3,45.4z"/>
<path class="st0" d="M481.8-30.2l3.6-2.7c0.2-0.1,0.2-0.4,0.1-0.6c-0.9-1.2-1.6-2.6-2.1-4.2c-0.5-1.5-0.7-3.1-0.6-4.6
	c0-0.2-0.2-0.4-0.4-0.4l-4.5-0.3c-0.2,0-0.4,0.2-0.4,0.4c-0.1,2.1,0.2,4.3,0.8,6.5c0.7,2.2,1.7,4.1,2.9,5.8
	C481.3-30.1,481.6-30.1,481.8-30.2z"/>
<path class="st0" d="M437.5-49.4l0.8,4.4c0,0.2,0.2,0.4,0.5,0.3c1.5-0.2,3.1-0.2,4.7,0.1c1.6,0.3,3,0.8,4.4,1.6
	c0.2,0.1,0.4,0,0.6-0.1l2.3-3.9c0.1-0.2,0.1-0.5-0.2-0.6c-1.9-1.1-3.9-1.8-6.2-2.2c-2.2-0.4-4.4-0.4-6.5-0.1
	C437.6-49.8,437.4-49.6,437.5-49.4z"/>
<path class="st0" d="M468.8-91.7l-4.1-2c-0.2-0.1-0.4,0-0.5,0.2c-0.7,1.4-1.7,2.6-2.8,3.7c-1.2,1.1-2.5,2-3.9,2.6
	c-0.2,0.1-0.3,0.3-0.2,0.5l1.8,4.1c0.1,0.2,0.3,0.3,0.6,0.2c2-0.9,3.8-2.1,5.4-3.6c1.6-1.6,2.9-3.3,3.9-5.2
	C469.1-91.4,469-91.6,468.8-91.7z"/>
<path class="st0" d="M440.5-119.7l4.4,1c0.2,0.1,0.4-0.1,0.5-0.3c0.4-1.5,1-2.9,1.9-4.3c0.9-1.3,2-2.5,3.2-3.4
	c0.2-0.1,0.2-0.4,0.1-0.6l-2.6-3.7c-0.1-0.2-0.4-0.2-0.6-0.1c-1.7,1.3-3.2,2.9-4.5,4.8c-1.2,1.9-2.1,3.9-2.7,6
	C440.1-119.9,440.2-119.7,440.5-119.7z"/>
<path class="st0" d="M466.4-0.1c-2-0.6-3.9,1.6-3.9,1.6S462-1.4,460-2c-2-0.6-3.7,0.6-4.2,2.4c-0.7,2.6,0.4,4.7,4.2,9.8
	c5.9-2.3,8-3.5,8.7-6.1C469.2,2.3,468.4,0.4,466.4-0.1z"/>
<path class="st0" d="M405.3,80.4l-0.3,4.5c0,0.2,0.2,0.4,0.4,0.4c1.5,0.1,3,0.5,4.5,1.2c1.5,0.7,2.8,1.5,3.9,2.6
	c0.2,0.2,0.4,0.2,0.6,0l3.2-3.2c0.2-0.2,0.2-0.4,0-0.6c-1.6-1.5-3.4-2.7-5.5-3.6c-2.1-0.9-4.2-1.5-6.3-1.6
	C405.5,80,405.3,80.2,405.3,80.4z"/>
<path class="st0" d="M436.8,52.8l3.6-2.7c0.2-0.1,0.2-0.4,0.1-0.6c-0.9-1.2-1.6-2.6-2.1-4.2c-0.5-1.5-0.7-3.1-0.6-4.6
	c0-0.2-0.2-0.4-0.4-0.4l-4.5-0.3c-0.2,0-0.4,0.2-0.4,0.4c-0.1,2.1,0.2,4.3,0.8,6.5c0.7,2.2,1.7,4.1,2.9,5.8
	C436.3,52.9,436.6,52.9,436.8,52.8z"/>
<path class="st0" d="M401.4,42.9c-2-0.6-3.9,1.6-3.9,1.6S397,41.6,395,41c-2-0.6-3.7,0.6-4.2,2.4c-0.7,2.6,0.4,4.7,4.2,9.8
	c5.9-2.3,8-3.5,8.7-6.1C404.2,45.3,403.4,43.4,401.4,42.9z"/>
<path class="st0" d="M-431.7-169c-2-0.6-3.9,1.6-3.9,1.6s-0.5-2.8-2.5-3.4c-2-0.6-3.6,0.6-4.2,2.4c-0.7,2.6,0.4,4.7,4.1,9.8
	c5.9-2.3,8-3.5,8.7-6.1C-428.9-166.6-429.7-168.4-431.7-169z"/>
<path class="st0" d="M-394.7-66.9l-4.3-1.2c-0.2-0.1-0.4,0.1-0.5,0.3c-0.4,1.5-1.1,2.9-2.1,4.2c-0.9,1.3-2.1,2.4-3.3,3.3
	c-0.2,0.1-0.2,0.4-0.1,0.6l2.5,3.8c0.1,0.2,0.4,0.3,0.6,0.1c1.8-1.2,3.3-2.8,4.7-4.6s2.3-3.8,2.9-5.9
	C-394.3-66.5-394.5-66.8-394.7-66.9z"/>
<path class="st0" d="M-417.8-102.7l4.4-1c0.2,0,0.4-0.3,0.3-0.5c-0.3-1.5-0.3-3.1-0.1-4.7c0.2-1.6,0.7-3.1,1.4-4.5
	c0.1-0.2,0-0.5-0.2-0.6l-4-2.1c-0.2-0.1-0.5,0-0.6,0.2c-1,1.9-1.7,4-2,6.2c-0.3,2.2-0.2,4.4,0.2,6.5
	C-418.3-102.8-418-102.6-417.8-102.7z"/>
<path class="st0" d="M-419.2-34.1c-2.1,0.4-2.8,3.1-2.8,3.1s-1.7-2.3-3.7-2c-2.1,0.4-3,2.1-2.7,3.9c0.5,2.6,2.4,4.1,8,6.9
	c4.3-4.6,5.6-6.7,5.1-9.3C-415.6-33.2-417.1-34.5-419.2-34.1z"/>
<path class="st0" d="M-445.6,57l-3-3.4c-0.1-0.2-0.4-0.2-0.6,0c-1.2,1-2.5,1.8-4,2.3c-1.5,0.6-3,0.9-4.6,0.9c-0.2,0-0.4,0.2-0.4,0.4
	l0,4.5c0,0.2,0.2,0.4,0.4,0.4c2.1-0.1,4.3-0.5,6.4-1.3c2.1-0.8,4-1.9,5.6-3.3C-445.5,57.5-445.5,57.2-445.6,57z"/>
<path class="st0" d="M-445.3,14.4l4.2,1.6c0.2,0.1,0.5,0,0.5-0.2c0.6-1.4,1.4-2.8,2.5-4c1.1-1.2,2.3-2.2,3.6-3
	c0.2-0.1,0.3-0.4,0.2-0.6l-2.1-4c-0.1-0.2-0.4-0.3-0.6-0.2c-1.9,1.1-3.6,2.4-5.1,4.1c-1.5,1.7-2.6,3.6-3.4,5.6
	C-445.6,14-445.5,14.3-445.3,14.4z"/>
<path class="st0" d="M51.6,10.2c-2.1,0.3-3,3-3,3s-1.6-2.4-3.7-2.1c-2.1,0.3-3.1,2-2.9,3.8c0.3,2.6,2.2,4.2,7.7,7.3
	c4.5-4.4,5.9-6.4,5.6-9C55.1,11.3,53.7,9.9,51.6,10.2z"/>
<path class="st0" d="M73.3,62l-4-2.1c-0.2-0.1-0.4,0-0.6,0.2c-0.8,1.3-1.7,2.5-3,3.6c-1.2,1.1-2.5,1.9-4,2.5
	c-0.2,0.1-0.3,0.3-0.2,0.5l1.6,4.2c0.1,0.2,0.3,0.3,0.6,0.2c2-0.8,3.9-1.9,5.6-3.4c1.7-1.5,3.1-3.2,4.1-5.1
	C73.6,62.4,73.5,62.1,73.3,62z"/>
<path class="st0" d="M16.3,90.3l-3-3.4c-0.2-0.2-0.4-0.2-0.6,0c-1.2,1-2.5,1.8-4,2.3c-1.5,0.6-3,0.9-4.6,0.9c-0.2,0-0.4,0.2-0.4,0.4
	l0,4.5c0,0.2,0.2,0.4,0.4,0.4c2.1-0.1,4.3-0.5,6.4-1.3s4-1.9,5.7-3.3C16.4,90.7,16.4,90.4,16.3,90.3z"/>
<path class="st0" d="M16.6,47.6l4.2,1.6c0.2,0.1,0.4,0,0.5-0.2c0.6-1.4,1.4-2.8,2.5-4c1.1-1.2,2.3-2.2,3.6-3
	c0.2-0.1,0.3-0.4,0.2-0.6l-2.1-4c-0.1-0.2-0.4-0.3-0.6-0.2c-1.9,1.1-3.6,2.4-5.1,4.1c-1.5,1.7-2.6,3.6-3.4,5.6
	C16.3,47.3,16.4,47.6,16.6,47.6z"/>
<path class="st0" d="M-484.1,70.9c-1.9-0.8-4.1,1.1-4.1,1.1s-0.1-2.9-2.1-3.7c-1.9-0.8-3.7,0.1-4.4,1.8c-1,2.4-0.2,4.7,2.9,10.2
	c6.1-1.5,8.3-2.5,9.4-4.9C-481.6,73.6-482.2,71.7-484.1,70.9z"/>
</svg>
