<?xml version="1.0" standalone="no"?>
<!DOCTYPE svg PUBLIC "-//W3C//DTD SVG 20010904//EN"
 "http://www.w3.org/TR/2001/REC-SVG-20010904/DTD/svg10.dtd">
<svg version="1.0" xmlns="http://www.w3.org/2000/svg"
 width="300.000000pt" height="186.000000pt" viewBox="0 0 300.000000 186.000000"
 preserveAspectRatio="xMidYMid meet">
<metadata>
Created by potrace 1.10, written by Peter Selinger 2001-2011
</metadata>
<g transform="translate(0.000000,186.000000) scale(0.100000,-0.100000)"
fill="#000000" stroke="none">
<path d="M726 1764 c-96 -50 -185 -175 -202 -284 -8 -46 -16 -50 -32 -15 -18
39 -94 117 -129 131 -65 28 -133 12 -153 -35 -34 -84 -1 -207 97 -354 112
-168 193 -248 277 -272 67 -19 90 -12 82 25 -3 20 1 33 15 45 57 53 196 311
249 465 41 118 46 166 26 226 -31 93 -126 121 -230 68z m172 -29 c34 -28 47
-77 37 -136 -8 -46 -23 -43 -23 4 0 52 -27 105 -56 113 -62 15 -167 -37 -214
-106 -33 -49 -72 -184 -73 -251 -2 -109 -37 -99 -103 31 -34 66 -53 92 -90
119 -59 42 -90 38 -105 -15 -14 -49 -6 -85 40 -179 53 -109 185 -266 265 -316
35 -21 44 -39 21 -39 -21 0 -99 53 -139 95 -56 58 -141 180 -186 266 -76 145
-62 253 33 264 25 3 75 -33 131 -92 75 -81 90 -80 118 2 44 126 122 224 201
253 55 19 111 14 143 -13z m-35 -53 c43 -47 25 -197 -42 -353 -29 -66 -156
-309 -176 -337 -2 -2 -24 11 -50 29 -113 76 -264 271 -294 380 -16 56 -11 113
9 116 28 5 104 -80 144 -160 45 -91 59 -107 91 -107 40 0 55 24 48 78 -6 54
15 149 51 228 17 37 39 63 77 92 73 54 115 64 142 34z"/>
<path d="M1265 1625 c-34 -16 -54 -31 -75 -60 -8 -11 2 -5 23 12 62 54 118 55
125 4 4 -25 -69 -162 -76 -142 -2 7 0 16 5 20 9 6 34 81 27 81 -2 0 -16 -26
-30 -57 -31 -73 -124 -214 -134 -208 -5 3 -11 19 -15 35 -4 17 -11 30 -16 30
-6 0 -6 -8 1 -19 14 -26 13 -31 -5 -25 -8 4 -24 34 -34 68 -11 33 -20 52 -20
40 -1 -36 30 -113 53 -132 13 -9 25 -24 27 -31 8 -22 145 147 190 234 42 81
48 124 23 149 -19 19 -30 19 -69 1z"/>
<path d="M1059 1601 c-21 -17 -24 -28 -25 -97 l-2 -79 7 72 c4 39 13 78 20 87
19 23 51 20 79 -6 l25 -23 -12 22 c-11 22 -40 43 -59 43 -5 0 -20 -9 -33 -19z"/>
<path d="M1203 1505 c-38 -42 -54 -54 -68 -49 -13 5 -16 4 -11 -4 15 -25 55
-13 72 21 9 17 28 44 42 60 14 15 23 27 21 27 -3 0 -28 -25 -56 -55z"/>
<path d="M2122 1270 c-78 -19 -114 -103 -92 -213 30 -146 146 -388 260 -542
29 -39 37 -58 33 -78 -5 -24 -2 -27 24 -27 53 0 122 31 174 77 83 76 233 298
254 378 33 128 19 199 -46 225 -63 27 -139 -14 -210 -111 l-44 -61 -7 43 c-32
184 -210 343 -346 309z m126 -44 c69 -35 133 -108 166 -191 38 -97 49 -118 63
-122 13 -5 53 33 88 81 24 33 93 76 123 76 11 0 34 -11 49 -24 25 -22 28 -30
26 -85 -1 -42 -10 -78 -27 -115 -14 -30 -26 -58 -26 -61 0 -11 -112 -168 -159
-224 -48 -57 -123 -111 -153 -111 -27 0 -22 13 14 34 82 49 210 200 273 325
47 93 54 171 17 201 -18 15 -29 17 -49 9 -49 -18 -78 -51 -128 -141 -75 -135
-105 -142 -105 -26 0 82 -42 207 -88 262 -20 25 -41 45 -45 45 -5 1 -21 9 -35
20 -86 59 -160 22 -178 -88 -8 -49 -11 -48 -19 2 -20 122 79 191 193 133z m20
-90 c74 -50 121 -158 127 -291 2 -44 4 -83 5 -87 0 -4 9 -12 19 -18 40 -21 67
3 120 108 41 79 60 105 97 132 56 40 67 31 60 -48 -4 -46 -62 -184 -85 -202
-4 -3 -30 -34 -58 -70 -62 -79 -104 -119 -163 -159 -30 -20 -46 -26 -49 -18
-2 7 -30 58 -63 113 -49 86 -80 150 -138 289 -31 76 -45 188 -30 243 18 69 63
71 158 8z"/>
<path d="M1652 1108 c-42 -42 40 -207 171 -344 l39 -42 24 21 c33 29 65 119
71 203 6 80 1 115 -23 138 -22 23 -71 20 -84 -3 -9 -19 -8 -19 16 -7 60 32 90
-14 81 -127 -4 -60 -37 -167 -50 -167 -2 0 -3 37 -1 83 l3 82 -8 -65 c-8 -63
-25 -120 -36 -120 -8 0 -110 162 -130 209 -11 24 -21 39 -23 33 -2 -6 7 -30
19 -54 l22 -43 -23 20 c-32 28 -73 122 -66 150 3 13 15 26 26 30 19 6 73 -16
85 -35 3 -5 16 -15 28 -21 20 -11 20 -10 -3 16 -46 50 -111 70 -138 43z"/>
<path d="M1740 1032 c0 -5 7 -16 16 -23 9 -8 28 -31 41 -52 17 -28 30 -37 45
-35 12 2 23 8 25 14 2 7 -5 10 -21 7 -20 -4 -29 2 -49 34 -26 42 -57 72 -57
55z"/>
<path d="M923 988 c-68 -75 -66 -207 4 -280 15 -16 33 -28 40 -28 17 0 17 0
-7 51 -21 48 -27 147 -10 180 6 10 7 19 3 19 -13 0 -36 -42 -45 -80 -6 -27 -6
-22 -3 20 5 57 29 102 59 108 10 2 29 -11 46 -29 26 -30 31 -32 54 -21 36 16
32 2 -12 -41 -40 -40 -54 -38 -68 8 l-8 30 -4 -39 c-5 -51 3 -66 32 -66 16 0
34 13 56 40 21 27 44 43 71 50 70 19 77 -8 24 -87 -30 -44 -98 -102 -224 -190
-49 -34 -2 -23 80 19 153 77 263 213 230 285 -21 46 -99 56 -162 21 -21 -12
-40 -20 -41 -17 -2 2 -10 18 -18 34 -21 40 -67 46 -97 13z"/>
<path d="M1980 478 c-11 -12 -20 -30 -20 -40 0 -23 -8 -23 -33 0 -14 12 -36
17 -84 17 -59 0 -68 -3 -85 -26 -25 -33 -19 -70 24 -134 37 -56 106 -110 211
-165 83 -43 87 -45 87 -31 0 5 -35 31 -77 60 -95 62 -137 100 -174 160 -38 59
-38 81 1 81 43 0 78 -19 101 -56 41 -67 93 -51 87 27 l-4 44 -9 -33 c-11 -46
-32 -51 -61 -16 -26 33 -30 46 -11 38 7 -2 30 11 50 31 20 19 40 35 46 35 17
0 50 -51 57 -86 9 -48 -2 -54 -19 -11 -18 42 -42 62 -27 22 17 -46 12 -131
-12 -180 -12 -24 -19 -48 -15 -51 14 -15 60 31 84 83 40 87 23 183 -41 235
-28 24 -51 22 -76 -4z"/>
</g>
</svg>
