<?xml version="1.0" standalone="no"?>
<!DOCTYPE svg PUBLIC "-//W3C//DTD SVG 20010904//EN"
 "http://www.w3.org/TR/2001/REC-SVG-20010904/DTD/svg10.dtd">
<svg version="1.0" xmlns="http://www.w3.org/2000/svg"
 width="300.000000pt" height="161.000000pt" viewBox="0 0 300.000000 161.000000"
 preserveAspectRatio="xMidYMid meet">
<metadata>
Created by potrace 1.10, written by Peter Selinger 2001-2011
</metadata>
<g transform="translate(0.000000,161.000000) scale(0.100000,-0.100000)"
fill="#000000" stroke="none">
<path d="M1780 1411 c-48 -15 -108 -51 -129 -77 -66 -84 -84 -253 -41 -389 38
-119 98 -222 184 -315 21 -23 34 -45 30 -50 -11 -10 -237 -84 -319 -104 -382
-95 -787 -61 -867 72 -9 14 -18 20 -22 14 -10 -17 39 -66 96 -94 164 -80 511
-81 817 -2 311 81 609 222 738 350 101 99 138 178 138 289 0 70 -4 86 -28 128
-32 54 -91 102 -148 118 -53 16 -118 4 -182 -35 l-56 -34 -23 47 c-35 70 -113
104 -188 82z m115 -27 c38 -18 56 -42 74 -96 l12 -36 60 41 c58 40 64 42 133
42 64 0 78 -3 115 -29 48 -34 91 -100 101 -157 23 -125 -67 -292 -210 -389
-57 -38 -312 -171 -327 -169 -12 0 -101 109 -145 175 -87 134 -126 317 -94
444 23 89 54 132 117 164 60 30 116 33 164 10z"/>
<path d="M490 1011 c-18 -34 -11 -78 16 -110 32 -39 67 -41 90 -6 14 22 15 32
5 65 -19 63 -87 94 -111 51z m55 3 c37 -15 59 -100 30 -124 -28 -23 -85 34
-85 85 0 12 26 45 35 45 2 0 11 -3 20 -6z"/>
<path d="M372 968 c-22 -22 -14 -84 14 -117 32 -39 67 -41 90 -6 42 64 -52
175 -104 123z m73 -24 c28 -31 33 -85 10 -104 -28 -23 -85 34 -85 85 0 16 27
45 41 45 6 0 21 -12 34 -26z"/>
<path d="M631 951 c-20 -37 -13 -81 18 -112 35 -35 64 -37 85 -7 22 31 20 59
-7 99 -28 42 -79 53 -96 20z m75 -16 c20 -20 25 -34 22 -63 -3 -34 -6 -37 -33
-37 -24 0 -34 7 -50 37 -16 30 -17 40 -7 62 15 33 36 33 68 1z"/>
<path d="M310 821 c-18 -34 -11 -78 16 -110 32 -39 67 -41 90 -6 14 22 15 32
5 65 -19 63 -87 94 -111 51z m75 -16 c29 -28 34 -85 10 -105 -28 -23 -85 34
-85 85 0 16 27 45 41 45 6 0 21 -11 34 -25z"/>
<path d="M490 792 c-39 -39 -58 -126 -41 -184 13 -44 55 -98 77 -98 6 0 29 21
51 46 l39 46 38 -16 c48 -20 72 -14 92 26 14 28 14 34 -1 74 -42 110 -189 171
-255 106z m138 -8 c91 -45 138 -137 93 -178 -19 -17 -26 -18 -55 -8 -50 19
-62 15 -100 -30 -29 -36 -38 -41 -53 -32 -51 30 -68 136 -33 212 30 66 69 76
148 36z"/>
<path d="M1885 540 c45 -47 167 -128 258 -170 108 -50 191 -78 307 -101 112
-23 330 -37 330 -22 0 6 -55 13 -132 16 -279 13 -528 103 -722 261 -64 53 -83
60 -41 16z"/>
</g>
</svg>
