<?xml version="1.0" encoding="utf-8"?>
<!-- Generator: Adobe Illustrator 21.1.0, SVG Export Plug-In . SVG Version: 6.00 Build 0)  -->
<svg version="1.1" id="Layer_1" xmlns="http://www.w3.org/2000/svg" xmlns:xlink="http://www.w3.org/1999/xlink" x="0px" y="0px"
	 viewBox="0 0 145 277" style="enable-background:new 0 0 145 277;" xml:space="preserve">
<style type="text/css">
	.st0{fill:#3E3E3E;}
</style>
<path class="st0" d="M137.7,244c-2.1,0.3-3,3-3,3s-1.6-2.4-3.7-2.1c-2.1,0.3-3.1,2-2.9,3.8c0.3,2.6,2.2,4.2,7.7,7.3
	c4.5-4.4,5.9-6.4,5.6-9C141.2,245.1,139.8,243.7,137.7,244z"/>
<path class="st0" d="M81.8,259.6l-0.4,4.5c0,0.2,0.1,0.4,0.4,0.5c1.5,0.2,3,0.6,4.5,1.3c1.5,0.7,2.7,1.6,3.8,2.7
	c0.2,0.2,0.4,0.2,0.6,0l3.2-3.1c0.2-0.2,0.2-0.4,0-0.6c-1.5-1.5-3.3-2.8-5.4-3.8c-2-1-4.2-1.6-6.3-1.8
	C82,259.1,81.8,259.3,81.8,259.6z"/>
<path class="st0" d="M109.4,226.8l-4-2.1c-0.2-0.1-0.4,0-0.6,0.2c-0.8,1.3-1.7,2.5-2.9,3.6c-1.2,1.1-2.5,1.9-4,2.5
	c-0.2,0.1-0.3,0.3-0.2,0.5l1.6,4.2c0.1,0.2,0.3,0.3,0.6,0.2c2-0.8,3.9-1.9,5.6-3.4c1.7-1.5,3.1-3.2,4.1-5.1
	C109.7,227.2,109.6,226.9,109.4,226.8z"/>
<path class="st0" d="M968.3,222.4l-0.3,4.5c0,0.2,0.2,0.4,0.4,0.4c1.5,0.1,3,0.5,4.5,1.2c1.5,0.7,2.8,1.5,3.9,2.6
	c0.2,0.2,0.4,0.2,0.6,0l3.2-3.2c0.2-0.2,0.2-0.4,0-0.6c-1.6-1.5-3.4-2.7-5.5-3.6c-2.1-0.9-4.2-1.5-6.3-1.6
	C968.5,222,968.3,222.2,968.3,222.4z"/>
<path class="st0" d="M979.8,146.8l3.6-2.7c0.2-0.1,0.2-0.4,0.1-0.6c-0.9-1.2-1.6-2.6-2.1-4.2c-0.5-1.5-0.7-3.1-0.6-4.6
	c0-0.2-0.2-0.4-0.4-0.4l-4.5-0.3c-0.2,0-0.4,0.2-0.4,0.4c-0.1,2.1,0.2,4.3,0.8,6.5c0.7,2.2,1.7,4.1,2.9,5.8
	C979.3,146.9,979.6,146.9,979.8,146.8z"/>
<path class="st0" d="M935.5,127.6l0.8,4.4c0,0.2,0.2,0.4,0.5,0.3c1.5-0.2,3.1-0.2,4.7,0.1c1.6,0.3,3,0.8,4.4,1.6
	c0.2,0.1,0.4,0,0.6-0.1l2.3-3.9c0.1-0.2,0.1-0.5-0.2-0.6c-1.9-1.1-3.9-1.8-6.2-2.2c-2.2-0.4-4.4-0.4-6.5-0.1
	C935.6,127.2,935.4,127.4,935.5,127.6z"/>
<path class="st0" d="M966.8,85.3l-4.1-2c-0.2-0.1-0.4,0-0.5,0.2c-0.7,1.4-1.7,2.6-2.8,3.7c-1.2,1.1-2.5,2-3.9,2.6
	c-0.2,0.1-0.3,0.3-0.2,0.5l1.8,4.1c0.1,0.2,0.3,0.3,0.6,0.2c2-0.9,3.8-2.1,5.4-3.6c1.6-1.6,2.9-3.3,3.9-5.2
	C967.1,85.6,967,85.4,966.8,85.3z"/>
<path class="st0" d="M938.5,57.3l4.4,1c0.2,0.1,0.4-0.1,0.5-0.3c0.4-1.5,1-2.9,1.9-4.3c0.9-1.3,2-2.5,3.2-3.4
	c0.2-0.1,0.2-0.4,0.1-0.6l-2.6-3.7c-0.1-0.2-0.4-0.2-0.6-0.1c-1.7,1.3-3.2,2.9-4.5,4.8c-1.2,1.9-2.1,3.9-2.7,6
	C938.1,57.1,938.2,57.3,938.5,57.3z"/>
<path class="st0" d="M964.4,176.9c-2-0.6-3.9,1.6-3.9,1.6s-0.5-2.8-2.5-3.4c-2-0.6-3.7,0.6-4.2,2.4c-0.7,2.6,0.4,4.7,4.2,9.8
	c5.9-2.3,8-3.5,8.7-6.1C967.2,179.3,966.4,177.4,964.4,176.9z"/>
<path class="st0" d="M903.3,257.4l-0.3,4.5c0,0.2,0.2,0.4,0.4,0.4c1.5,0.1,3,0.5,4.5,1.2c1.5,0.7,2.8,1.5,3.9,2.6
	c0.2,0.2,0.4,0.2,0.6,0l3.2-3.2c0.2-0.2,0.2-0.4,0-0.6c-1.6-1.5-3.4-2.7-5.5-3.6c-2.1-0.9-4.2-1.5-6.3-1.6
	C903.5,257,903.3,257.2,903.3,257.4z"/>
<path class="st0" d="M934.8,229.8l3.6-2.7c0.2-0.1,0.2-0.4,0.1-0.6c-0.9-1.2-1.6-2.6-2.1-4.2c-0.5-1.5-0.7-3.1-0.6-4.6
	c0-0.2-0.2-0.4-0.4-0.4l-4.5-0.3c-0.2,0-0.4,0.2-0.4,0.4c-0.1,2.1,0.2,4.3,0.8,6.5c0.7,2.2,1.7,4.1,2.9,5.8
	C934.3,229.9,934.6,229.9,934.8,229.8z"/>
<path class="st0" d="M899.4,219.9c-2-0.6-3.9,1.6-3.9,1.6s-0.5-2.8-2.5-3.4c-2-0.6-3.7,0.6-4.2,2.4c-0.7,2.6,0.4,4.7,4.2,9.8
	c5.9-2.3,8-3.5,8.7-6.1C902.2,222.3,901.4,220.4,899.4,219.9z"/>
<path class="st0" d="M66.3,8c-2-0.6-3.9,1.6-3.9,1.6s-0.5-2.8-2.5-3.4c-2-0.6-3.6,0.6-4.2,2.4c-0.7,2.6,0.4,4.7,4.1,9.8
	c5.9-2.3,8-3.5,8.7-6.1C69.1,10.4,68.3,8.6,66.3,8z"/>
<path class="st0" d="M103.3,110.1l-4.3-1.2c-0.2-0.1-0.4,0.1-0.5,0.3c-0.4,1.5-1.1,2.9-2.1,4.2c-0.9,1.3-2.1,2.4-3.3,3.3
	c-0.2,0.1-0.2,0.4-0.1,0.6l2.5,3.8c0.1,0.2,0.4,0.3,0.6,0.1c1.8-1.2,3.3-2.8,4.7-4.6s2.3-3.8,2.9-5.9
	C103.7,110.5,103.5,110.2,103.3,110.1z"/>
<path class="st0" d="M80.2,74.3l4.4-1c0.2,0,0.4-0.3,0.3-0.5c-0.3-1.5-0.3-3.1-0.1-4.7c0.2-1.6,0.7-3.1,1.4-4.5
	c0.1-0.2,0-0.5-0.2-0.6l-4-2.1c-0.2-0.1-0.5,0-0.6,0.2c-1,1.9-1.7,4-2,6.2c-0.3,2.2-0.2,4.4,0.2,6.5C79.7,74.2,80,74.4,80.2,74.3z"
	/>
<path class="st0" d="M78.8,142.9c-2.1,0.4-2.8,3.1-2.8,3.1s-1.7-2.3-3.7-2c-2.1,0.4-3,2.1-2.7,3.9c0.5,2.6,2.4,4.1,8,6.9
	c4.3-4.6,5.6-6.7,5.1-9.3C82.4,143.8,80.9,142.5,78.8,142.9z"/>
<path class="st0" d="M52.4,234l-3-3.4c-0.1-0.2-0.4-0.2-0.6,0c-1.2,1-2.5,1.8-4,2.3c-1.5,0.6-3,0.9-4.6,0.9c-0.2,0-0.4,0.2-0.4,0.4
	l0,4.5c0,0.2,0.2,0.4,0.4,0.4c2.1-0.1,4.3-0.5,6.4-1.3c2.1-0.8,4-1.9,5.6-3.3C52.5,234.5,52.5,234.2,52.4,234z"/>
<path class="st0" d="M52.7,191.4l4.2,1.6c0.2,0.1,0.5,0,0.5-0.2c0.6-1.4,1.4-2.8,2.5-4c1.1-1.2,2.3-2.2,3.6-3
	c0.2-0.1,0.3-0.4,0.2-0.6l-2.1-4c-0.1-0.2-0.4-0.3-0.6-0.2c-1.9,1.1-3.6,2.4-5.1,4.1c-1.5,1.7-2.6,3.6-3.4,5.6
	C52.4,191,52.5,191.3,52.7,191.4z"/>
<path class="st0" d="M549.6,187.2c-2.1,0.3-3,3-3,3s-1.6-2.4-3.7-2.1c-2.1,0.3-3.1,2-2.9,3.8c0.3,2.6,2.2,4.2,7.7,7.3
	c4.5-4.4,5.9-6.4,5.6-9C553.1,188.3,551.7,186.9,549.6,187.2z"/>
<path class="st0" d="M571.3,239l-4-2.1c-0.2-0.1-0.4,0-0.6,0.2c-0.8,1.3-1.7,2.5-3,3.6c-1.2,1.1-2.5,1.9-4,2.5
	c-0.2,0.1-0.3,0.3-0.2,0.5l1.6,4.2c0.1,0.2,0.3,0.3,0.6,0.2c2-0.8,3.9-1.9,5.6-3.4c1.7-1.5,3.1-3.2,4.1-5.1
	C571.6,239.4,571.5,239.1,571.3,239z"/>
<path class="st0" d="M514.3,267.3l-3-3.4c-0.2-0.2-0.4-0.2-0.6,0c-1.2,1-2.5,1.8-4,2.3c-1.5,0.6-3,0.9-4.6,0.9
	c-0.2,0-0.4,0.2-0.4,0.4l0,4.5c0,0.2,0.2,0.4,0.4,0.4c2.1-0.1,4.3-0.5,6.4-1.3s4-1.9,5.7-3.3C514.4,267.7,514.4,267.4,514.3,267.3z"
	/>
<path class="st0" d="M514.6,224.6l4.2,1.6c0.2,0.1,0.4,0,0.5-0.2c0.6-1.4,1.4-2.8,2.5-4c1.1-1.2,2.3-2.2,3.6-3
	c0.2-0.1,0.3-0.4,0.2-0.6l-2.1-4c-0.1-0.2-0.4-0.3-0.6-0.2c-1.9,1.1-3.6,2.4-5.1,4.1c-1.5,1.7-2.6,3.6-3.4,5.6
	C514.3,224.3,514.4,224.6,514.6,224.6z"/>
<path class="st0" d="M13.9,247.9c-1.9-0.8-4.1,1.1-4.1,1.1s-0.1-2.9-2.1-3.7c-1.9-0.8-3.7,0.1-4.4,1.8c-1,2.4-0.2,4.7,2.9,10.2
	c6.1-1.5,8.3-2.5,9.4-4.9C16.4,250.6,15.8,248.7,13.9,247.9z"/>
</svg>
