<svg width="991" height="408" viewBox="0 0 991 408" fill="none" xmlns="http://www.w3.org/2000/svg">
<g clip-path="url(#clip0_194_316)">
<path d="M871.932 407.936H3.95C1.76848 407.936 0 406.168 0 403.986V118.776C0 53.1777 53.1777 0 118.776 0H986.757C988.939 0 990.707 1.76848 990.707 3.95V289.161C990.707 354.759 937.53 407.936 871.932 407.936Z" fill="#FD6400"/>
<path d="M254.914 302.646V298.182C254.914 291.253 259.965 288.257 264.957 288.257C267.541 288.257 270.83 289.196 272.768 290.959C273.297 291.428 273.355 292.251 272.885 292.955L270.654 296.01C270.008 297.008 269.009 296.538 268.422 296.127C267.365 295.421 266.366 295.187 265.662 295.187C264.017 295.187 262.491 296.361 262.491 298.829V302.646H268.07C268.715 302.646 269.303 303.174 269.303 303.878V307.755C269.303 308.401 268.715 308.988 268.07 308.988H262.491V329.719C262.491 330.366 261.962 330.953 261.316 330.953H256.148C255.502 330.953 254.914 330.366 254.914 329.719V308.988H251.097C250.392 308.988 249.864 308.401 249.864 307.755V303.878C249.864 303.174 250.392 302.646 251.097 302.646H254.914Z" fill="white"/>
<path d="M286.918 302.293C287.506 302.293 288.269 302.587 288.269 303.761V308.812C288.269 309.986 287.33 310.28 286.86 310.28H285.45C281.692 310.28 279.519 312.218 279.519 317.092V329.837C279.519 330.483 278.873 330.952 278.286 330.952H273.117C272.472 330.952 271.943 330.424 271.943 329.779V303.878C271.943 303.174 272.472 302.646 273.117 302.646H277.992C278.579 302.646 279.166 303.174 279.166 303.761V306.463C280.635 303.937 283.101 302.293 286.097 302.293H286.918Z" fill="white"/>
<path d="M304.065 301.823C312.522 301.823 319.275 308.401 319.275 316.858C319.275 325.256 312.522 331.775 304.065 331.775C295.608 331.775 288.854 325.256 288.854 316.858C288.854 308.401 295.608 301.823 304.065 301.823ZM304.065 324.728C308.411 324.728 311.641 321.203 311.641 316.799C311.641 312.394 308.411 308.871 304.065 308.871C299.719 308.871 296.489 312.394 296.489 316.799C296.489 321.203 299.719 324.728 304.065 324.728Z" fill="white"/>
<path d="M330.43 329.837C330.43 330.483 329.784 330.953 329.197 330.953H324.028C323.382 330.953 322.854 330.424 322.854 329.779V303.878C322.854 303.174 323.382 302.646 324.028 302.646H329.197C329.784 302.646 330.43 303.174 330.43 303.761V305.993C332.074 303.644 335.422 301.823 339.239 301.823C343.468 301.823 346.698 303.82 348.283 306.816C350.926 303.233 354.685 301.823 358.326 301.823C366.606 301.823 370.424 307.695 370.424 313.805V329.837C370.424 330.483 369.837 330.953 369.19 330.953H364.081C363.435 330.953 362.848 330.483 362.848 329.837V315.624C362.848 311.807 360.91 308.812 356.799 308.812C352.688 308.812 350.456 311.807 350.456 315.624V329.837C350.456 330.483 349.81 330.953 349.223 330.953H344.114C343.526 330.953 342.88 330.483 342.88 329.837V315.624C342.88 311.807 340.942 308.812 336.831 308.812C332.72 308.812 330.43 311.807 330.43 315.624V329.837Z" fill="white"/>
<path d="M414.201 301.648L406.8 329.719C406.566 330.6 405.744 330.953 405.215 330.953H396.699C396.112 330.953 395.349 330.6 395.114 329.719L385.188 291.721C384.895 290.489 385.6 289.842 386.481 289.842H392.588C393.234 289.842 393.704 290.43 393.88 291.076L401.221 321.556L409.267 290.959C409.443 290.313 409.737 289.842 410.618 289.842H417.665C418.311 289.842 418.84 290.372 419.016 290.959L427.062 321.322L434.403 291.076C434.52 290.43 434.99 289.842 435.695 289.842H441.451C442.39 289.842 443.036 290.313 442.684 291.721L432.817 329.719C432.582 330.6 431.525 330.953 431.231 330.953H423.127C422.54 330.953 421.776 330.6 421.541 329.719L414.201 301.648Z" fill="white"/>
<path d="M454.858 301.823C463.315 301.823 470.069 308.401 470.069 316.858C470.069 325.256 463.315 331.775 454.858 331.775C446.401 331.775 439.647 325.256 439.647 316.858C439.647 308.401 446.401 301.823 454.858 301.823ZM454.858 324.728C459.204 324.728 462.434 321.203 462.434 316.799C462.434 312.394 459.204 308.871 454.858 308.871C450.512 308.871 447.282 312.394 447.282 316.799C447.282 321.203 450.512 324.728 454.858 324.728Z" fill="white"/>
<path d="M487.39 301.823C495.847 301.823 502.601 308.401 502.601 316.858C502.601 325.256 495.847 331.775 487.39 331.775C478.933 331.775 472.179 325.256 472.179 316.858C472.179 308.401 478.933 301.823 487.39 301.823ZM487.39 324.728C491.736 324.728 494.966 321.203 494.966 316.799C494.966 312.394 491.736 308.871 487.39 308.871C483.044 308.871 479.814 312.394 479.814 316.799C479.814 321.203 483.044 324.728 487.39 324.728Z" fill="white"/>
<path d="M506.12 323.905V291.076C506.12 290.43 506.649 289.842 507.353 289.842H512.463C513.167 289.842 513.696 290.43 513.696 291.076V322.437C513.696 323.788 514.401 324.669 515.81 324.669H517.514C518.1 324.669 518.688 324.962 518.688 325.785V329.485C518.688 330.718 517.748 330.953 517.161 330.953H513.402C508.352 330.953 506.12 328.192 506.12 323.905Z" fill="white"/>
<path d="M534.249 330.953H527.672C526.908 330.953 526.379 330.424 526.144 329.719L517.981 304.348C517.629 303.291 518.157 302.646 519.097 302.646H524.618C525.498 302.646 525.909 303.174 526.086 303.82L531.077 321.909L535.952 303.82C536.187 302.997 536.657 302.646 537.42 302.646H543.528C544.292 302.646 544.82 302.997 545.055 303.82L549.929 321.909L555.039 303.82C555.215 303.233 555.626 302.646 556.507 302.646H561.44C562.38 302.646 562.909 303.291 562.556 304.348L554.393 329.719C554.158 330.424 553.629 330.953 552.807 330.953H546.406C545.584 330.953 544.996 330.424 544.82 329.719L540.298 312.746L535.776 329.719C535.6 330.424 535.012 330.953 534.249 330.953Z" fill="white"/>
<path d="M578.231 301.823C586.688 301.823 593.442 308.401 593.442 316.858C593.442 325.256 586.688 331.775 578.231 331.775C569.774 331.775 563.02 325.256 563.02 316.858C563.02 308.401 569.774 301.823 578.231 301.823ZM578.231 324.728C582.577 324.728 585.807 321.203 585.807 316.799C585.807 312.394 582.577 308.871 578.231 308.871C573.885 308.871 570.655 312.394 570.655 316.799C570.655 321.203 573.885 324.728 578.231 324.728Z" fill="white"/>
<path d="M611.995 302.293C612.583 302.293 613.346 302.587 613.346 303.761V308.812C613.346 309.986 612.407 310.28 611.937 310.28H610.527C606.769 310.28 604.596 312.218 604.596 317.092V329.837C604.596 330.483 603.95 330.952 603.362 330.952H598.194C597.548 330.952 597.02 330.424 597.02 329.779V303.878C597.02 303.174 597.548 302.646 598.194 302.646H603.069C603.656 302.646 604.243 303.174 604.243 303.761V306.463C605.712 303.937 608.178 302.293 611.174 302.293H611.995Z" fill="white"/>
<path d="M638.573 326.783C639.043 327.488 638.925 328.192 638.397 328.721C636.576 330.541 633.64 331.539 630.41 331.539C625.712 331.539 621.013 328.956 621.013 322.613V308.988H617.137C616.491 308.988 615.963 308.401 615.963 307.755V303.878C615.963 303.174 616.491 302.646 617.137 302.646H621.013V294.776C621.013 294.072 621.542 293.542 622.247 293.542H627.415C628.061 293.542 628.589 294.072 628.589 294.776V302.646H636.811C637.457 302.646 638.045 303.174 638.045 303.878V307.755C638.045 308.401 637.457 308.988 636.811 308.988H628.589V320.91C628.589 323.788 630.469 324.551 631.819 324.551C632.524 324.551 633.522 324.316 634.521 323.67C635.402 323.141 636.283 323.141 636.811 323.905L638.573 326.783Z" fill="white"/>
<path d="M662.824 316.152C662.824 311.69 660.299 308.812 655.953 308.812C651.666 308.812 648.847 311.807 648.847 316.152V329.837C648.847 330.483 648.201 330.953 647.614 330.953H642.446C641.8 330.953 641.271 330.424 641.271 329.779V291.017C641.271 290.372 641.8 289.842 642.446 289.842H647.614C648.201 289.842 648.847 290.313 648.847 290.959V305.993C650.492 303.703 653.721 301.823 658.244 301.823C665.761 301.823 670.4 307.109 670.4 314.097V329.837C670.4 330.483 669.813 330.953 669.167 330.953H664.058C663.412 330.953 662.824 330.483 662.824 329.837V316.152Z" fill="white"/>
<path d="M697.117 305.406C697.939 306.11 697.822 306.991 697.176 307.755L695.296 309.986C694.592 310.809 693.711 310.809 692.654 310.163C690.833 308.871 688.425 307.755 685.959 307.755C683.375 307.755 681.73 308.929 681.73 310.28C681.73 311.631 682.729 312.512 685.313 312.982L689.952 313.863C694.944 314.803 698.585 317.21 698.585 322.32C698.585 327.781 693.417 331.775 685.959 331.775C681.026 331.775 677.385 330.13 675.153 328.428C672.98 326.783 673.097 325.432 674.272 324.492L676.445 322.73C677.561 321.85 678.383 322.32 679.087 322.907C680.967 324.551 683.316 325.843 686.311 325.843C689.365 325.843 690.833 324.492 690.833 323.024C690.833 321.38 689.248 320.792 686.311 320.205L681.789 319.265C677.208 318.326 674.154 315.448 674.154 310.867C674.154 305.758 678.853 301.823 686.135 301.823C691.538 301.823 695.296 303.82 697.117 305.406Z" fill="white"/>
<path d="M114.455 97.9302C93.813 97.9302 77.0627 114.633 77.0027 135.274L77.003 168.841C76.9655 184.494 80.9214 198.655 88.8493 211.017C92.2037 204.956 96.3301 199.331 101.217 194.286C117.587 177.418 140.431 168.121 165.567 168.121C167.31 168.121 168.738 169.466 168.87 171.193C169.003 172.919 167.775 174.463 166.064 174.712C165.699 174.762 131.284 180.158 111.544 207.8C107.682 213.228 104.626 219.153 102.375 225.553C102.148 226.2 102.332 226.926 102.84 227.387C103.172 227.687 103.506 227.986 103.845 228.283C114.24 237.404 125.914 244.553 138.42 250.382L139.07 250.683C140.548 251.368 142.253 251.368 143.731 250.683L144.381 250.382C156.887 244.553 168.561 237.404 178.956 228.283C195.287 213.955 205.702 195.801 205.702 175.313L205.702 105.319C205.726 101.246 202.43 97.9303 198.356 97.9303L114.552 97.9302" fill="white"/>
<path d="M279.245 96.3918C262.066 96.3918 249.777 109.64 249.777 126.232C249.777 142.823 262.066 155.608 279.586 155.608C285.281 155.608 290.048 154.431 294.104 152.574C298.282 150.593 301.873 147.714 304.318 144.464C305.03 143.535 305.03 142.235 303.73 141.43L295.496 136.323C294.227 135.642 293.299 135.982 292.494 136.911C290.853 138.769 289.336 140.037 287.386 141.09C285.281 142.142 282.836 142.823 279.833 142.823C272.281 142.823 266.028 137.592 265.192 129.73H305.123C307.228 129.73 307.816 128.553 307.816 127.161V124.374C307.816 109.516 296.549 96.3918 279.245 96.3918ZM265.563 120.196C267.049 113.107 272.621 108.464 279.369 108.464C285.746 108.464 291.658 112.55 293.051 120.196H265.563Z" fill="white"/>
<path d="M326.789 153.973C325.164 153.973 324.118 152.929 323.655 151.537L305.896 101.627C305.199 99.7691 306.243 98.0293 308.101 98.0293H319.36C321.101 98.0293 321.799 99.0732 322.262 100.352L334.912 138.769L346.52 100.352C346.865 99.0732 347.68 98.0293 349.422 98.0293H360.448C362.307 98.0293 363.351 99.7691 362.77 101.627L345.009 151.537C344.661 152.929 343.502 153.973 341.993 153.973H326.789Z" fill="white"/>
<path d="M389.469 96.3918C372.32 96.3918 360 109.64 360 126.232C360 142.823 372.32 155.608 389.841 155.608C395.505 155.608 400.272 154.431 404.327 152.574C408.506 150.593 412.127 147.714 414.542 144.464C415.254 143.535 415.254 142.235 413.985 141.43L405.72 136.323C404.451 135.642 403.522 135.982 402.717 136.911C401.077 138.769 399.591 140.037 397.61 141.09C395.505 142.142 393.091 142.823 390.057 142.823C382.504 142.823 376.251 137.592 375.447 129.73H415.378C417.452 129.73 418.04 128.553 418.04 127.161V124.374C418.04 109.516 406.772 96.3918 389.469 96.3918ZM375.787 120.196C377.304 113.107 382.876 108.464 389.593 108.464C395.969 108.464 401.913 112.55 403.306 120.196H375.787Z" fill="white"/>
<path d="M641.409 170.703C640.363 169.659 640.245 167.92 641.291 166.527L644.892 161.534C646.282 159.679 648.255 159.911 649.648 160.955C651.623 162.464 653.943 163.625 656.727 163.625C660.325 163.625 662.998 161.189 664.274 157.706L665.612 153.973H660.391C658.878 153.973 657.954 153.044 657.486 151.654L640.542 101.627C640.077 99.7687 640.426 98.03 642.977 98.03H654.934C656.327 98.03 657.137 99.1881 657.486 100.466L669.676 140.393L681.166 100.466C681.514 99.1881 682.441 98.03 684.182 98.03H695.674C697.764 98.03 698.46 99.5371 697.764 101.627L679.013 160.025C675.764 170.008 668.8 176.507 657.771 176.507C651.157 176.507 645.239 174.305 641.409 170.703Z" fill="white"/>
<path d="M634.101 98.0323H623.855C622.71 98.0323 621.565 99.0849 621.565 100.478V104.873C618.779 100.013 612.371 96.3918 604.478 96.3918C589.743 96.3918 576.402 107.907 576.402 125.891C576.402 143.876 589.743 155.608 604.385 155.608C612.278 155.608 618.655 151.986 621.565 147.126V151.645C621.565 152.914 622.586 153.967 623.855 153.967H634.101C635.37 153.967 636.423 152.914 636.423 151.645V100.478C636.423 99.0849 635.37 98.0323 634.101 98.0323ZM606.583 141.771C597.977 141.771 591.477 134.713 591.477 125.984C591.477 117.286 597.977 110.321 606.583 110.321C615.157 110.321 621.565 117.286 621.565 125.984C621.565 134.713 615.157 141.771 606.583 141.771Z" fill="white"/>
<path d="M570.176 76.9834H559.93C558.784 76.9834 557.639 78.0359 557.608 79.3979L557.485 104.44C556.864 103.417 556.056 102.449 555.101 101.553C551.72 98.3819 546.395 96.1751 540.119 96.1751C525.571 96.1751 512.26 107.845 512.26 125.767C512.26 143.845 525.571 155.608 540.367 155.608C548.291 155.608 554.327 151.986 557.608 147.095V151.645C557.608 152.914 558.661 153.967 559.93 153.967H570.052C571.476 153.967 572.497 152.914 572.497 151.645V130.596V79.4289V79.3979C572.466 78.0359 571.321 76.9834 570.176 76.9834ZM542.565 141.74C533.928 141.74 527.428 134.62 527.428 125.891C527.428 117.162 533.928 110.167 542.565 110.167C551.201 110.167 557.608 117.162 557.608 125.891C557.608 134.62 551.201 141.74 542.565 141.74Z" fill="white"/>
<path d="M461.582 98.0301H449.198C442.214 98.0301 436.55 103.665 436.492 110.633V100.467C436.492 99.0715 435.445 98.0293 434.169 98.0293H423.84C422.564 98.0293 421.517 99.0715 421.517 100.467V151.654C421.517 152.93 422.56 153.973 423.836 153.973H434.173C435.449 153.973 436.492 152.93 436.492 151.654L436.496 119.963C436.496 119.886 436.501 119.808 436.513 119.732C437.025 116.261 438.535 113.1 440.936 110.622C444.252 107.204 448.88 105.322 453.973 105.322C454.324 105.322 454.614 105.592 454.641 105.943C454.666 106.295 454.418 106.605 454.072 106.655C454 106.666 447.027 107.758 443.029 113.359C441.692 115.237 440.832 117.405 440.447 119.847H449.621C456.64 119.847 462.329 114.157 462.329 107.139V98.7776C462.329 98.3648 461.995 98.0301 461.582 98.0301Z" fill="white"/>
<path d="M511.548 98.0293H500.061C498.317 98.0293 497.389 99.1873 497.041 100.465L485.549 140.392L473.363 100.465C473.013 99.1873 472.203 98.0293 470.811 98.0293H467.029V107.139C467.029 111.733 465.227 115.906 462.308 119.021L473.363 151.653C473.828 153.043 474.758 153.972 476.267 153.972H481.488L480.147 157.705C478.872 161.188 476.202 163.625 472.606 163.625C469.817 163.625 467.497 162.463 465.522 160.954C464.133 159.91 462.158 159.678 460.766 161.533L457.165 166.527C456.119 167.919 456.239 169.658 457.283 170.702C461.112 174.304 467.031 176.506 473.647 176.506C484.676 176.506 491.64 170.007 494.889 160.024L513.638 101.626C514.333 99.5361 513.638 98.0293 511.548 98.0293Z" fill="white"/>
<path d="M282.276 197.098C297.029 197.098 309.924 208.715 309.924 226.606C309.924 244.612 297.029 256.346 282.043 256.346C275.306 256.346 268.219 253.558 264.85 248.446V277.372C264.85 278.651 263.805 279.696 262.526 279.696H252.187C250.909 279.696 249.864 278.651 249.864 277.372V201.164C249.864 199.769 250.909 198.724 252.187 198.724H262.294C263.571 198.724 264.618 199.769 264.618 201.164V205.579C267.871 200.7 274.259 197.098 282.276 197.098ZM279.836 242.521C288.432 242.521 294.822 235.551 294.822 226.722C294.822 218.009 288.432 211.038 279.836 211.038C271.24 211.038 264.734 218.009 264.734 226.722C264.734 235.551 271.24 242.521 279.836 242.521Z" fill="white"/>
<path d="M371.262 225.095V227.884C371.262 229.277 370.68 230.44 368.589 230.44H328.626C329.439 238.339 335.713 243.566 343.264 243.566C346.284 243.566 348.724 242.87 350.815 241.824C352.79 240.778 354.3 239.501 355.926 237.642C356.74 236.712 357.669 236.364 358.947 237.061L367.195 242.173C368.473 242.986 368.473 244.263 367.776 245.193C365.337 248.446 361.735 251.35 357.553 253.325C353.487 255.184 348.724 256.346 343.032 256.346C325.489 256.346 313.175 243.566 313.175 226.954C313.175 210.341 325.489 197.098 342.683 197.098C359.993 197.098 371.262 210.225 371.262 225.095ZM342.799 209.18C336.061 209.18 330.485 213.826 328.974 220.913H356.508C355.113 213.246 349.189 209.18 342.799 209.18Z" fill="white"/>
<path d="M414.127 246.471C415.056 247.865 414.824 249.259 413.779 250.305C410.177 253.906 404.369 255.881 397.979 255.881C388.685 255.881 379.392 250.769 379.392 238.223V211.271H371.725C370.446 211.271 369.401 210.109 369.401 208.831V201.164C369.401 199.769 370.446 198.724 371.725 198.724H379.392V183.157C379.392 181.764 380.437 180.717 381.831 180.717H392.054C393.333 180.717 394.378 181.764 394.378 183.157V198.724H410.642C411.92 198.724 413.082 199.769 413.082 201.164V208.831C413.082 210.109 411.92 211.271 410.642 211.271H394.378V234.854C394.378 240.546 398.096 242.057 400.768 242.057C402.162 242.057 404.137 241.592 406.111 240.314C407.854 239.268 409.596 239.268 410.642 240.778L414.127 246.471Z" fill="white"/>
<path d="M436.081 181.995C436.081 176.884 440.264 172.586 445.492 172.586C450.603 172.586 454.785 176.884 454.785 181.995C454.785 187.107 450.603 191.405 445.492 191.405C440.264 191.405 436.081 187.107 436.081 181.995ZM440.38 254.719C438.986 254.719 437.941 253.558 437.941 252.279V201.164C437.941 199.769 438.986 198.724 440.38 198.724H450.487C451.882 198.724 452.927 199.769 452.927 201.164V252.279C452.927 253.558 451.882 254.719 450.487 254.719H440.38Z" fill="white"/>
<path d="M503.227 225.444C503.227 216.615 498.232 210.922 489.636 210.922C481.155 210.922 475.579 216.847 475.579 225.444V252.512C475.579 253.79 474.301 254.719 473.139 254.719H462.917C461.638 254.719 460.593 253.674 460.593 252.396V201.164C460.593 199.769 461.638 198.724 462.917 198.724H473.139C474.301 198.724 475.579 199.769 475.579 200.932V205.346C478.832 200.816 485.222 197.098 494.166 197.098C509.036 197.098 518.214 207.553 518.214 221.378V252.512C518.214 253.79 517.052 254.719 515.775 254.719H505.667C504.39 254.719 503.227 253.79 503.227 252.512V225.444Z" fill="white"/>
<path d="M568.746 204.185C570.373 205.579 570.141 207.321 568.862 208.831L565.145 213.246C563.751 214.872 562.008 214.872 559.918 213.594C556.316 211.038 551.554 208.831 546.674 208.831C541.562 208.831 538.309 211.154 538.309 213.826C538.309 216.499 540.285 218.241 545.396 219.171L554.573 220.913C564.448 222.772 571.651 227.535 571.651 237.642C571.651 248.446 561.427 256.346 546.674 256.346C536.916 256.346 529.713 253.093 525.299 249.724C521 246.471 521.232 243.799 523.556 241.941L527.854 238.455C530.062 236.712 531.687 237.642 533.082 238.804C536.8 242.057 541.446 244.612 547.371 244.612C553.412 244.612 556.316 241.941 556.316 239.036C556.316 235.783 553.179 234.622 547.371 233.459L538.426 231.601C529.365 229.742 523.323 224.05 523.323 214.988C523.323 204.882 532.618 197.098 547.022 197.098C557.71 197.098 565.145 201.048 568.746 204.185Z" fill="white"/>
<path d="M590.469 229.975C590.469 238.107 594.535 243.566 603.016 243.566C611.264 243.566 615.911 237.991 615.911 230.207V200.932C615.911 199.769 617.072 198.724 618.235 198.724H628.457C629.852 198.724 630.897 199.769 630.897 201.164V252.396C630.897 253.674 629.852 254.719 628.457 254.719H618.235C617.072 254.719 615.911 253.79 615.911 252.512V248.097C612.426 252.861 607.315 256.346 598.485 256.346C584.196 256.346 575.483 246.703 575.483 232.53V200.932C575.483 199.769 576.644 198.724 577.923 198.724H588.029C589.308 198.724 590.469 199.769 590.469 200.932V229.975Z" fill="white"/>
<path d="M668.187 198.027C669.348 198.027 670.859 198.608 670.859 200.932V210.922C670.859 213.246 669 213.826 668.07 213.826H665.282C657.847 213.826 653.549 217.66 653.549 227.303V252.512C653.549 253.79 652.271 254.719 651.11 254.719H640.887C639.608 254.719 638.563 253.674 638.563 252.396V201.164C638.563 199.769 639.608 198.724 640.887 198.724H650.528C651.691 198.724 652.852 199.769 652.852 200.932V206.275C655.757 201.28 660.635 198.027 666.561 198.027H668.187Z" fill="white"/>
<path d="M697.926 197.098C705.826 197.098 712.216 200.7 715.004 205.579V201.164C715.004 199.769 716.165 198.724 717.327 198.724H727.55C728.828 198.724 729.874 199.769 729.874 201.164V252.396C729.874 253.674 728.828 254.719 727.55 254.719H717.327C716.049 254.719 715.004 253.674 715.004 252.396V247.865C712.1 252.745 705.71 256.346 697.81 256.346C683.173 256.346 669.813 244.612 669.813 226.606C669.813 208.599 683.173 197.098 697.926 197.098ZM700.018 242.521C708.614 242.521 715.004 235.435 715.004 226.722C715.004 218.009 708.614 211.038 700.018 211.038C691.421 211.038 684.916 218.009 684.916 226.722C684.916 235.435 691.421 242.521 700.018 242.521Z" fill="white"/>
<path d="M780.174 225.444C780.174 216.615 775.179 210.922 766.583 210.922C758.102 210.922 752.526 216.847 752.526 225.444V252.512C752.526 253.79 751.248 254.719 750.086 254.719H739.864C738.585 254.719 737.54 253.674 737.54 252.396V201.164C737.54 199.769 738.585 198.724 739.864 198.724H750.086C751.248 198.724 752.526 199.769 752.526 200.932V205.346C755.779 200.816 762.169 197.098 771.113 197.098C785.983 197.098 795.161 207.553 795.161 221.378V252.512C795.161 253.79 793.999 254.719 792.722 254.719H782.614C781.337 254.719 780.174 253.79 780.174 252.512V225.444Z" fill="white"/>
<path d="M829.314 197.098C840.814 197.098 849.875 202.674 854.523 210.341C855.452 211.852 854.755 213.594 853.477 214.523L847.785 218.939C845.809 220.449 844.067 219.752 842.905 218.241C839.187 213.71 835.586 211.038 829.546 211.038C820.833 211.038 814.56 218.009 814.56 226.722C814.56 235.435 820.833 242.405 829.546 242.405C835.586 242.405 839.187 239.733 842.905 235.202C844.067 233.693 845.809 232.995 847.785 234.506L853.477 238.92C854.755 239.849 855.452 241.592 854.523 243.102C849.875 250.769 840.814 256.346 829.314 256.346C812.468 256.346 799.457 243.45 799.457 226.722C799.457 209.993 812.468 197.098 829.314 197.098Z" fill="white"/>
<path d="M913.77 225.095V227.884C913.77 229.277 913.188 230.44 911.097 230.44H871.134C871.947 238.339 878.221 243.566 885.772 243.566C888.792 243.566 891.232 242.87 893.323 241.824C895.298 240.778 896.808 239.501 898.434 237.642C899.248 236.712 900.177 236.364 901.455 237.061L909.703 242.173C910.981 242.986 910.981 244.263 910.284 245.193C907.845 248.446 904.243 251.35 900.061 253.325C895.995 255.184 891.232 256.346 885.54 256.346C867.997 256.346 855.683 243.566 855.683 226.954C855.683 210.341 867.997 197.098 885.191 197.098C902.501 197.098 913.77 210.225 913.77 225.095ZM885.307 209.18C878.569 209.18 872.993 213.826 871.483 220.913H899.016C897.621 213.246 891.697 209.18 885.307 209.18Z" fill="white"/>
</g>
<defs>
<clipPath id="clip0_194_316">
<rect width="990.707" height="407.936" fill="white"/>
</clipPath>
</defs>
</svg>
