<?xml version="1.0" standalone="no"?>
<!DOCTYPE svg PUBLIC "-//W3C//DTD SVG 20010904//EN"
 "http://www.w3.org/TR/2001/REC-SVG-20010904/DTD/svg10.dtd">
<svg version="1.0" xmlns="http://www.w3.org/2000/svg"
 width="300.000000pt" height="156.000000pt" viewBox="0 0 300.000000 156.000000"
 preserveAspectRatio="xMidYMid meet">
<metadata>
Created by potrace 1.10, written by Peter Selinger 2001-2011
</metadata>
<g transform="translate(0.000000,156.000000) scale(0.100000,-0.100000)"
fill="#000000" stroke="none">
<path d="M1141 1408 c-31 -17 -52 -38 -68 -68 -13 -24 -25 -45 -27 -48 -2 -2
-23 10 -46 27 -58 42 -135 58 -197 41 -67 -19 -154 -106 -172 -173 -21 -72 -9
-157 33 -241 63 -129 183 -225 418 -335 l101 -47 -79 -62 c-96 -76 -287 -172
-409 -207 -117 -34 -258 -55 -367 -55 -60 0 -88 -4 -88 -12 0 -8 31 -9 113 -5
302 17 563 109 762 268 l83 66 158 -53 c263 -87 474 -121 699 -111 140 7 231
24 298 58 51 25 107 77 107 98 0 9 -12 1 -30 -21 -64 -77 -169 -108 -395 -115
-243 -8 -434 23 -690 111 -152 52 -142 43 -102 85 61 65 116 146 156 232 49
107 65 174 64 274 -2 140 -45 231 -133 279 -72 39 -134 44 -189 14z m140 -10
c137 -41 201 -218 150 -418 -27 -108 -67 -191 -141 -288 -96 -128 -79 -124
-217 -58 -230 111 -335 195 -398 321 -26 53 -30 70 -30 152 0 86 2 94 30 134
87 124 231 143 343 45 20 -17 37 -26 39 -20 15 46 54 103 82 121 38 25 84 29
142 11z"/>
<path d="M2496 999 c-18 -21 -26 -42 -26 -70 0 -97 110 -76 127 25 11 72 -54
102 -101 45z m72 9 c32 -32 -5 -128 -48 -128 -47 0 -49 84 -3 120 30 23 35 24
51 8z"/>
<path d="M2637 969 c-21 -12 -47 -67 -47 -99 0 -11 9 -29 21 -41 55 -55 139
57 99 132 -12 21 -45 24 -73 8z m69 -36 c9 -35 -19 -91 -50 -99 -35 -8 -46 2
-46 42 0 44 15 73 43 83 30 11 46 3 53 -26z"/>
<path d="M2363 955 c-30 -21 -49 -85 -34 -113 37 -68 121 -26 124 62 2 60 -42
85 -90 51z m65 -7 c27 -27 1 -111 -38 -123 -45 -14 -64 38 -35 95 20 39 50 51
73 28z"/>
<path d="M2691 814 c-56 -47 -48 -144 12 -144 47 0 93 80 75 130 -17 47 -43
51 -87 14z m69 -9 c16 -20 5 -77 -19 -99 -11 -10 -30 -16 -43 -14 -18 2 -24
10 -26 39 -5 62 55 114 88 74z"/>
<path d="M2455 802 c-118 -56 -172 -164 -110 -222 24 -23 25 -23 67 -6 l43 17
40 -46 c45 -51 62 -55 92 -22 44 48 57 105 42 178 -21 99 -92 139 -174 101z
m120 -26 c48 -48 57 -171 16 -226 -28 -38 -55 -37 -80 4 -27 43 -53 52 -104
35 -37 -12 -41 -12 -59 11 -38 47 6 132 92 177 57 30 104 30 135 -1z"/>
</g>
</svg>
